<mxfile host="app.diagrams.net" agent="Mozilla/5.0 (Windows NT 10.0; Win64; x64) AppleWebKit/537.36 (KHTML, like Gecko) Chrome/129.0.0.0 Safari/537.36" version="24.7.17">
  <diagram name="Page-1" id="YzyYkRNOD07EolLJvGLR">
    <mxGraphModel dx="989" dy="514" grid="1" gridSize="10" guides="1" tooltips="1" connect="1" arrows="1" fold="1" page="1" pageScale="1" pageWidth="827" pageHeight="1169" math="0" shadow="0">
      <root>
        <mxCell id="0" />
        <mxCell id="1" parent="0" />
        <mxCell id="3XrwOWnkT0JKsNECEwCa-12" value="" style="group" vertex="1" connectable="0" parent="1">
          <mxGeometry x="40" y="120" width="120" height="40" as="geometry" />
        </mxCell>
        <mxCell id="3XrwOWnkT0JKsNECEwCa-1" value="" style="rounded=0;whiteSpace=wrap;html=1;" vertex="1" parent="3XrwOWnkT0JKsNECEwCa-12">
          <mxGeometry width="100" height="20" as="geometry" />
        </mxCell>
        <mxCell id="3XrwOWnkT0JKsNECEwCa-10" value="" style="rounded=0;whiteSpace=wrap;html=1;" vertex="1" parent="3XrwOWnkT0JKsNECEwCa-12">
          <mxGeometry x="10" y="10" width="100" height="20" as="geometry" />
        </mxCell>
        <mxCell id="3XrwOWnkT0JKsNECEwCa-11" value="" style="rounded=0;whiteSpace=wrap;html=1;" vertex="1" parent="3XrwOWnkT0JKsNECEwCa-12">
          <mxGeometry x="20" y="20" width="100" height="20" as="geometry" />
        </mxCell>
        <mxCell id="3XrwOWnkT0JKsNECEwCa-32" value="Records" style="text;html=1;align=center;verticalAlign=middle;whiteSpace=wrap;rounded=0;" vertex="1" parent="3XrwOWnkT0JKsNECEwCa-12">
          <mxGeometry x="45" y="20" width="50" height="20" as="geometry" />
        </mxCell>
        <mxCell id="3XrwOWnkT0JKsNECEwCa-13" value="" style="group" vertex="1" connectable="0" parent="1">
          <mxGeometry x="360" y="40" width="120" height="40" as="geometry" />
        </mxCell>
        <mxCell id="3XrwOWnkT0JKsNECEwCa-14" value="" style="rounded=0;whiteSpace=wrap;html=1;" vertex="1" parent="3XrwOWnkT0JKsNECEwCa-13">
          <mxGeometry width="100" height="20" as="geometry" />
        </mxCell>
        <mxCell id="3XrwOWnkT0JKsNECEwCa-15" value="" style="rounded=0;whiteSpace=wrap;html=1;" vertex="1" parent="3XrwOWnkT0JKsNECEwCa-13">
          <mxGeometry x="10" y="10" width="100" height="20" as="geometry" />
        </mxCell>
        <mxCell id="3XrwOWnkT0JKsNECEwCa-16" value="" style="rounded=0;whiteSpace=wrap;html=1;" vertex="1" parent="3XrwOWnkT0JKsNECEwCa-13">
          <mxGeometry x="20" y="20" width="100" height="20" as="geometry" />
        </mxCell>
        <mxCell id="3XrwOWnkT0JKsNECEwCa-33" value="Group1" style="text;html=1;align=center;verticalAlign=middle;whiteSpace=wrap;rounded=0;" vertex="1" parent="3XrwOWnkT0JKsNECEwCa-13">
          <mxGeometry x="45" y="20" width="50" height="20" as="geometry" />
        </mxCell>
        <mxCell id="3XrwOWnkT0JKsNECEwCa-17" value="" style="group" vertex="1" connectable="0" parent="1">
          <mxGeometry x="360" y="120" width="120" height="40" as="geometry" />
        </mxCell>
        <mxCell id="3XrwOWnkT0JKsNECEwCa-18" value="" style="rounded=0;whiteSpace=wrap;html=1;" vertex="1" parent="3XrwOWnkT0JKsNECEwCa-17">
          <mxGeometry width="100" height="20" as="geometry" />
        </mxCell>
        <mxCell id="3XrwOWnkT0JKsNECEwCa-19" value="" style="rounded=0;whiteSpace=wrap;html=1;" vertex="1" parent="3XrwOWnkT0JKsNECEwCa-17">
          <mxGeometry x="10" y="10" width="100" height="20" as="geometry" />
        </mxCell>
        <mxCell id="3XrwOWnkT0JKsNECEwCa-20" value="" style="rounded=0;whiteSpace=wrap;html=1;" vertex="1" parent="3XrwOWnkT0JKsNECEwCa-17">
          <mxGeometry x="20" y="20" width="100" height="20" as="geometry" />
        </mxCell>
        <mxCell id="3XrwOWnkT0JKsNECEwCa-34" value="Group2" style="text;html=1;align=center;verticalAlign=middle;whiteSpace=wrap;rounded=0;" vertex="1" parent="3XrwOWnkT0JKsNECEwCa-17">
          <mxGeometry x="45" y="20" width="50" height="20" as="geometry" />
        </mxCell>
        <mxCell id="3XrwOWnkT0JKsNECEwCa-21" value="" style="group" vertex="1" connectable="0" parent="1">
          <mxGeometry x="360" y="200" width="120" height="40" as="geometry" />
        </mxCell>
        <mxCell id="3XrwOWnkT0JKsNECEwCa-22" value="" style="rounded=0;whiteSpace=wrap;html=1;" vertex="1" parent="3XrwOWnkT0JKsNECEwCa-21">
          <mxGeometry width="100" height="20" as="geometry" />
        </mxCell>
        <mxCell id="3XrwOWnkT0JKsNECEwCa-23" value="" style="rounded=0;whiteSpace=wrap;html=1;" vertex="1" parent="3XrwOWnkT0JKsNECEwCa-21">
          <mxGeometry x="10" y="10" width="100" height="20" as="geometry" />
        </mxCell>
        <mxCell id="3XrwOWnkT0JKsNECEwCa-24" value="" style="rounded=0;whiteSpace=wrap;html=1;" vertex="1" parent="3XrwOWnkT0JKsNECEwCa-21">
          <mxGeometry x="20" y="20" width="100" height="20" as="geometry" />
        </mxCell>
        <mxCell id="3XrwOWnkT0JKsNECEwCa-35" value="GroupN" style="text;html=1;align=center;verticalAlign=middle;whiteSpace=wrap;rounded=0;" vertex="1" parent="3XrwOWnkT0JKsNECEwCa-21">
          <mxGeometry x="45" y="20" width="50" height="20" as="geometry" />
        </mxCell>
        <mxCell id="3XrwOWnkT0JKsNECEwCa-29" style="edgeStyle=orthogonalEdgeStyle;rounded=0;orthogonalLoop=1;jettySize=auto;html=1;exitX=1;exitY=0.5;exitDx=0;exitDy=0;entryX=0;entryY=1;entryDx=0;entryDy=0;" edge="1" parent="1" source="3XrwOWnkT0JKsNECEwCa-26" target="3XrwOWnkT0JKsNECEwCa-14">
          <mxGeometry relative="1" as="geometry">
            <Array as="points">
              <mxPoint x="340" y="140" />
              <mxPoint x="340" y="60" />
            </Array>
          </mxGeometry>
        </mxCell>
        <mxCell id="3XrwOWnkT0JKsNECEwCa-30" style="edgeStyle=orthogonalEdgeStyle;rounded=0;orthogonalLoop=1;jettySize=auto;html=1;exitX=1;exitY=0.5;exitDx=0;exitDy=0;" edge="1" parent="1" source="3XrwOWnkT0JKsNECEwCa-26">
          <mxGeometry relative="1" as="geometry">
            <mxPoint x="360" y="140" as="targetPoint" />
          </mxGeometry>
        </mxCell>
        <mxCell id="3XrwOWnkT0JKsNECEwCa-31" style="edgeStyle=orthogonalEdgeStyle;rounded=0;orthogonalLoop=1;jettySize=auto;html=1;exitX=1;exitY=0.5;exitDx=0;exitDy=0;entryX=0;entryY=0.5;entryDx=0;entryDy=0;" edge="1" parent="1" source="3XrwOWnkT0JKsNECEwCa-26" target="3XrwOWnkT0JKsNECEwCa-22">
          <mxGeometry relative="1" as="geometry" />
        </mxCell>
        <mxCell id="3XrwOWnkT0JKsNECEwCa-26" value="group api" style="shape=process;whiteSpace=wrap;html=1;backgroundOutline=1;fillColor=#dae8fc;strokeColor=#6c8ebf;" vertex="1" parent="1">
          <mxGeometry x="200" y="120" width="120" height="40" as="geometry" />
        </mxCell>
        <mxCell id="3XrwOWnkT0JKsNECEwCa-28" style="edgeStyle=orthogonalEdgeStyle;rounded=0;orthogonalLoop=1;jettySize=auto;html=1;entryX=0;entryY=0.5;entryDx=0;entryDy=0;" edge="1" parent="1" target="3XrwOWnkT0JKsNECEwCa-26">
          <mxGeometry relative="1" as="geometry">
            <mxPoint x="160" y="140" as="sourcePoint" />
          </mxGeometry>
        </mxCell>
        <mxCell id="3XrwOWnkT0JKsNECEwCa-36" value="&lt;b&gt;......&lt;/b&gt;" style="text;html=1;align=center;verticalAlign=middle;whiteSpace=wrap;rounded=0;" vertex="1" parent="1">
          <mxGeometry x="360" y="170" width="120" height="10" as="geometry" />
        </mxCell>
        <mxCell id="3XrwOWnkT0JKsNECEwCa-37" value="construct api" style="shape=process;whiteSpace=wrap;html=1;backgroundOutline=1;fillColor=#dae8fc;strokeColor=#6c8ebf;" vertex="1" parent="1">
          <mxGeometry x="520" y="120" width="120" height="40" as="geometry" />
        </mxCell>
        <mxCell id="3XrwOWnkT0JKsNECEwCa-40" value="" style="shape=curlyBracket;whiteSpace=wrap;html=1;rounded=1;flipH=1;labelPosition=right;verticalLabelPosition=middle;align=left;verticalAlign=middle;" vertex="1" parent="1">
          <mxGeometry x="490" y="40" width="30" height="200" as="geometry" />
        </mxCell>
        <mxCell id="3XrwOWnkT0JKsNECEwCa-43" value="" style="shape=curlyBracket;whiteSpace=wrap;html=1;rounded=1;labelPosition=left;verticalLabelPosition=middle;align=right;verticalAlign=middle;" vertex="1" parent="1">
          <mxGeometry x="640" y="40" width="30" height="200" as="geometry" />
        </mxCell>
        <mxCell id="3XrwOWnkT0JKsNECEwCa-45" value="Intent 1" style="rounded=1;whiteSpace=wrap;html=1;" vertex="1" parent="1">
          <mxGeometry x="680" y="40" width="120" height="40" as="geometry" />
        </mxCell>
        <mxCell id="3XrwOWnkT0JKsNECEwCa-46" value="Intent N" style="rounded=1;whiteSpace=wrap;html=1;" vertex="1" parent="1">
          <mxGeometry x="680" y="200" width="120" height="40" as="geometry" />
        </mxCell>
        <mxCell id="3XrwOWnkT0JKsNECEwCa-47" value="Intent 2" style="rounded=1;whiteSpace=wrap;html=1;" vertex="1" parent="1">
          <mxGeometry x="680" y="120" width="120" height="40" as="geometry" />
        </mxCell>
        <mxCell id="3XrwOWnkT0JKsNECEwCa-48" value="&lt;b&gt;......&lt;/b&gt;" style="text;html=1;align=center;verticalAlign=middle;whiteSpace=wrap;rounded=0;" vertex="1" parent="1">
          <mxGeometry x="680" y="170" width="120" height="10" as="geometry" />
        </mxCell>
        <mxCell id="3XrwOWnkT0JKsNECEwCa-50" value="" style="group" vertex="1" connectable="0" parent="1">
          <mxGeometry x="40" y="360" width="120" height="40" as="geometry" />
        </mxCell>
        <mxCell id="3XrwOWnkT0JKsNECEwCa-51" value="" style="rounded=0;whiteSpace=wrap;html=1;" vertex="1" parent="3XrwOWnkT0JKsNECEwCa-50">
          <mxGeometry width="100" height="20" as="geometry" />
        </mxCell>
        <mxCell id="3XrwOWnkT0JKsNECEwCa-52" value="" style="rounded=0;whiteSpace=wrap;html=1;" vertex="1" parent="3XrwOWnkT0JKsNECEwCa-50">
          <mxGeometry x="10" y="10" width="100" height="20" as="geometry" />
        </mxCell>
        <mxCell id="3XrwOWnkT0JKsNECEwCa-53" value="" style="rounded=0;whiteSpace=wrap;html=1;" vertex="1" parent="3XrwOWnkT0JKsNECEwCa-50">
          <mxGeometry x="20" y="20" width="100" height="20" as="geometry" />
        </mxCell>
        <mxCell id="3XrwOWnkT0JKsNECEwCa-54" value="Intents" style="text;html=1;align=center;verticalAlign=middle;whiteSpace=wrap;rounded=0;" vertex="1" parent="3XrwOWnkT0JKsNECEwCa-50">
          <mxGeometry x="45" y="20" width="50" height="20" as="geometry" />
        </mxCell>
        <mxCell id="3XrwOWnkT0JKsNECEwCa-55" value="" style="group" vertex="1" connectable="0" parent="1">
          <mxGeometry x="360" y="280" width="120" height="40" as="geometry" />
        </mxCell>
        <mxCell id="3XrwOWnkT0JKsNECEwCa-56" value="" style="rounded=0;whiteSpace=wrap;html=1;" vertex="1" parent="3XrwOWnkT0JKsNECEwCa-55">
          <mxGeometry width="100" height="20" as="geometry" />
        </mxCell>
        <mxCell id="3XrwOWnkT0JKsNECEwCa-57" value="" style="rounded=0;whiteSpace=wrap;html=1;" vertex="1" parent="3XrwOWnkT0JKsNECEwCa-55">
          <mxGeometry x="10" y="10" width="100" height="20" as="geometry" />
        </mxCell>
        <mxCell id="3XrwOWnkT0JKsNECEwCa-58" value="" style="rounded=0;whiteSpace=wrap;html=1;" vertex="1" parent="3XrwOWnkT0JKsNECEwCa-55">
          <mxGeometry x="20" y="20" width="100" height="20" as="geometry" />
        </mxCell>
        <mxCell id="3XrwOWnkT0JKsNECEwCa-59" value="Group1" style="text;html=1;align=center;verticalAlign=middle;whiteSpace=wrap;rounded=0;" vertex="1" parent="3XrwOWnkT0JKsNECEwCa-55">
          <mxGeometry x="45" y="20" width="50" height="20" as="geometry" />
        </mxCell>
        <mxCell id="3XrwOWnkT0JKsNECEwCa-60" value="" style="group" vertex="1" connectable="0" parent="1">
          <mxGeometry x="360" y="360" width="120" height="40" as="geometry" />
        </mxCell>
        <mxCell id="3XrwOWnkT0JKsNECEwCa-61" value="" style="rounded=0;whiteSpace=wrap;html=1;" vertex="1" parent="3XrwOWnkT0JKsNECEwCa-60">
          <mxGeometry width="100" height="20" as="geometry" />
        </mxCell>
        <mxCell id="3XrwOWnkT0JKsNECEwCa-62" value="" style="rounded=0;whiteSpace=wrap;html=1;" vertex="1" parent="3XrwOWnkT0JKsNECEwCa-60">
          <mxGeometry x="10" y="10" width="100" height="20" as="geometry" />
        </mxCell>
        <mxCell id="3XrwOWnkT0JKsNECEwCa-63" value="" style="rounded=0;whiteSpace=wrap;html=1;" vertex="1" parent="3XrwOWnkT0JKsNECEwCa-60">
          <mxGeometry x="20" y="20" width="100" height="20" as="geometry" />
        </mxCell>
        <mxCell id="3XrwOWnkT0JKsNECEwCa-64" value="Group2" style="text;html=1;align=center;verticalAlign=middle;whiteSpace=wrap;rounded=0;" vertex="1" parent="3XrwOWnkT0JKsNECEwCa-60">
          <mxGeometry x="45" y="20" width="50" height="20" as="geometry" />
        </mxCell>
        <mxCell id="3XrwOWnkT0JKsNECEwCa-65" value="" style="group" vertex="1" connectable="0" parent="1">
          <mxGeometry x="360" y="440" width="120" height="40" as="geometry" />
        </mxCell>
        <mxCell id="3XrwOWnkT0JKsNECEwCa-66" value="" style="rounded=0;whiteSpace=wrap;html=1;" vertex="1" parent="3XrwOWnkT0JKsNECEwCa-65">
          <mxGeometry width="100" height="20" as="geometry" />
        </mxCell>
        <mxCell id="3XrwOWnkT0JKsNECEwCa-67" value="" style="rounded=0;whiteSpace=wrap;html=1;" vertex="1" parent="3XrwOWnkT0JKsNECEwCa-65">
          <mxGeometry x="10" y="10" width="100" height="20" as="geometry" />
        </mxCell>
        <mxCell id="3XrwOWnkT0JKsNECEwCa-68" value="" style="rounded=0;whiteSpace=wrap;html=1;" vertex="1" parent="3XrwOWnkT0JKsNECEwCa-65">
          <mxGeometry x="20" y="20" width="100" height="20" as="geometry" />
        </mxCell>
        <mxCell id="3XrwOWnkT0JKsNECEwCa-69" value="GroupN" style="text;html=1;align=center;verticalAlign=middle;whiteSpace=wrap;rounded=0;" vertex="1" parent="3XrwOWnkT0JKsNECEwCa-65">
          <mxGeometry x="45" y="20" width="50" height="20" as="geometry" />
        </mxCell>
        <mxCell id="3XrwOWnkT0JKsNECEwCa-70" style="edgeStyle=orthogonalEdgeStyle;rounded=0;orthogonalLoop=1;jettySize=auto;html=1;exitX=1;exitY=0.5;exitDx=0;exitDy=0;entryX=0;entryY=1;entryDx=0;entryDy=0;" edge="1" parent="1" source="3XrwOWnkT0JKsNECEwCa-73" target="3XrwOWnkT0JKsNECEwCa-56">
          <mxGeometry relative="1" as="geometry">
            <Array as="points">
              <mxPoint x="340" y="380" />
              <mxPoint x="340" y="300" />
            </Array>
          </mxGeometry>
        </mxCell>
        <mxCell id="3XrwOWnkT0JKsNECEwCa-71" style="edgeStyle=orthogonalEdgeStyle;rounded=0;orthogonalLoop=1;jettySize=auto;html=1;exitX=1;exitY=0.5;exitDx=0;exitDy=0;" edge="1" parent="1" source="3XrwOWnkT0JKsNECEwCa-73">
          <mxGeometry relative="1" as="geometry">
            <mxPoint x="360" y="380" as="targetPoint" />
          </mxGeometry>
        </mxCell>
        <mxCell id="3XrwOWnkT0JKsNECEwCa-72" style="edgeStyle=orthogonalEdgeStyle;rounded=0;orthogonalLoop=1;jettySize=auto;html=1;exitX=1;exitY=0.5;exitDx=0;exitDy=0;entryX=0;entryY=0.5;entryDx=0;entryDy=0;" edge="1" parent="1" source="3XrwOWnkT0JKsNECEwCa-73" target="3XrwOWnkT0JKsNECEwCa-66">
          <mxGeometry relative="1" as="geometry" />
        </mxCell>
        <mxCell id="3XrwOWnkT0JKsNECEwCa-73" value="group api" style="shape=process;whiteSpace=wrap;html=1;backgroundOutline=1;fillColor=#dae8fc;strokeColor=#6c8ebf;" vertex="1" parent="1">
          <mxGeometry x="200" y="360" width="120" height="40" as="geometry" />
        </mxCell>
        <mxCell id="3XrwOWnkT0JKsNECEwCa-74" style="edgeStyle=orthogonalEdgeStyle;rounded=0;orthogonalLoop=1;jettySize=auto;html=1;entryX=0;entryY=0.5;entryDx=0;entryDy=0;" edge="1" parent="1" target="3XrwOWnkT0JKsNECEwCa-73">
          <mxGeometry relative="1" as="geometry">
            <mxPoint x="160" y="380" as="sourcePoint" />
          </mxGeometry>
        </mxCell>
        <mxCell id="3XrwOWnkT0JKsNECEwCa-75" value="&lt;b&gt;......&lt;/b&gt;" style="text;html=1;align=center;verticalAlign=middle;whiteSpace=wrap;rounded=0;" vertex="1" parent="1">
          <mxGeometry x="360" y="410" width="120" height="10" as="geometry" />
        </mxCell>
        <mxCell id="3XrwOWnkT0JKsNECEwCa-76" value="construct api" style="shape=process;whiteSpace=wrap;html=1;backgroundOutline=1;fillColor=#dae8fc;strokeColor=#6c8ebf;" vertex="1" parent="1">
          <mxGeometry x="520" y="360" width="120" height="40" as="geometry" />
        </mxCell>
        <mxCell id="3XrwOWnkT0JKsNECEwCa-77" value="" style="shape=curlyBracket;whiteSpace=wrap;html=1;rounded=1;flipH=1;labelPosition=right;verticalLabelPosition=middle;align=left;verticalAlign=middle;" vertex="1" parent="1">
          <mxGeometry x="490" y="280" width="30" height="200" as="geometry" />
        </mxCell>
        <mxCell id="3XrwOWnkT0JKsNECEwCa-78" value="" style="shape=curlyBracket;whiteSpace=wrap;html=1;rounded=1;labelPosition=left;verticalLabelPosition=middle;align=right;verticalAlign=middle;" vertex="1" parent="1">
          <mxGeometry x="640" y="280" width="30" height="200" as="geometry" />
        </mxCell>
        <mxCell id="3XrwOWnkT0JKsNECEwCa-79" value="Higher Intent 1" style="rounded=1;whiteSpace=wrap;html=1;" vertex="1" parent="1">
          <mxGeometry x="680" y="280" width="120" height="40" as="geometry" />
        </mxCell>
        <mxCell id="3XrwOWnkT0JKsNECEwCa-80" value="Higher Intent 1" style="rounded=1;whiteSpace=wrap;html=1;" vertex="1" parent="1">
          <mxGeometry x="680" y="440" width="120" height="40" as="geometry" />
        </mxCell>
        <mxCell id="3XrwOWnkT0JKsNECEwCa-81" value="Higher Intent 1" style="rounded=1;whiteSpace=wrap;html=1;" vertex="1" parent="1">
          <mxGeometry x="680" y="360" width="120" height="40" as="geometry" />
        </mxCell>
        <mxCell id="3XrwOWnkT0JKsNECEwCa-82" value="&lt;b&gt;......&lt;/b&gt;" style="text;html=1;align=center;verticalAlign=middle;whiteSpace=wrap;rounded=0;" vertex="1" parent="1">
          <mxGeometry x="680" y="410" width="120" height="10" as="geometry" />
        </mxCell>
        <mxCell id="3XrwOWnkT0JKsNECEwCa-84" style="edgeStyle=orthogonalEdgeStyle;rounded=0;orthogonalLoop=1;jettySize=auto;html=1;exitX=0.5;exitY=1;exitDx=0;exitDy=0;entryX=0.5;entryY=0;entryDx=0;entryDy=0;" edge="1" parent="1" source="3XrwOWnkT0JKsNECEwCa-83" target="3XrwOWnkT0JKsNECEwCa-37">
          <mxGeometry relative="1" as="geometry" />
        </mxCell>
        <mxCell id="3XrwOWnkT0JKsNECEwCa-83" value="Immutable Intents" style="rounded=1;whiteSpace=wrap;html=1;" vertex="1" parent="1">
          <mxGeometry x="520" y="60" width="120" height="40" as="geometry" />
        </mxCell>
        <mxCell id="3XrwOWnkT0JKsNECEwCa-86" style="edgeStyle=orthogonalEdgeStyle;rounded=0;orthogonalLoop=1;jettySize=auto;html=1;exitX=0.5;exitY=1;exitDx=0;exitDy=0;entryX=0.5;entryY=0;entryDx=0;entryDy=0;" edge="1" parent="1" source="3XrwOWnkT0JKsNECEwCa-85" target="3XrwOWnkT0JKsNECEwCa-76">
          <mxGeometry relative="1" as="geometry" />
        </mxCell>
        <mxCell id="3XrwOWnkT0JKsNECEwCa-85" value="Immutable Intents" style="rounded=1;whiteSpace=wrap;html=1;" vertex="1" parent="1">
          <mxGeometry x="520" y="300" width="120" height="40" as="geometry" />
        </mxCell>
      </root>
    </mxGraphModel>
  </diagram>
</mxfile>
